# xmcd
#
# Track frame offsets:
#	150
#	13620
#	30839
#	42137
#	58067
#	75136
#	89973
#	104751
#	119960
#	147466
#	162774
#	179894
#	200264
#
# Disc length: 2834 seconds
#
# Revision: 1
# Processed by: cddbd v1.4PL0 Copyright (c) Steve Scherf et al.
# Submitted via: EasyCDDAExtractor 5.1.0
#
DISCID=b60b100d
DTITLE=Riverhead melodies - Dance The Bleus
DYEAR=1900
DGENRE=Country
TTITLE0=Dance the bleus away
TTITLE1=For reasons
TTITLE2=Hopelesly yours
TTITLE3=Blue heartache
TTITLE4=I fall to pieces
TTITLE5=Mercury blues
TTITLE6=I'm not gonna cry for you
TTITLE7=Oklahoma swing
TTITLE8=Blues man
TTITLE9=making plans
TTITLE10=It ain't over
TTITLE11=Together again
TTITLE12=Picknick Polka
EXTD=
EXTT0=
EXTT1=
EXTT2=
EXTT3=
EXTT4=
EXTT5=
EXTT6=
EXTT7=
EXTT8=
EXTT9=
EXTT10=
EXTT11=
EXTT12=
PLAYORDER=
